<svg xmlns="http://www.w3.org/2000/svg" width="552.109" height="387.294" viewBox="0 0 552.109 387.294"><defs><style>.a,.d,.f,.l,.n,.x{fill:#fff;}.a,.b,.c,.l,.m{stroke:#91a8b3;}.a,.e,.g,.h,.i,.k,.m,.o,.r,.s,.t,.u,.w,.x,.y{stroke-linecap:round;}.a,.e,.g,.h,.i,.k,.m,.o,.s,.t,.w,.x,.y{stroke-linejoin:round;}.a,.c,.d,.e,.f,.g,.l,.m,.o,.r,.s,.t,.u,.w,.x,.y{stroke-width:3.2px;}.a,.b,.d,.e,.h,.i,.k,.m,.r,.t,.u,.v,.w,.x,.y,.z{fill-rule:evenodd;}.b,.c,.e,.h,.i,.k,.m,.r,.t,.u,.y{fill:none;}.b,.h{stroke-width:2px;}.d,.e,.k{stroke:#cbcbcb;}.f,.i{stroke:#ededed;}.g{fill:#efefef;}.g,.h{stroke:#ff2e63;}.i,.k{stroke-width:4px;}.j,.w{fill:#ededed;}.o{fill:rgba(255,226,159,0.56);}.o,.r{stroke:#aa9156;}.p{fill:#c8c8c8;}.q{fill:#aa9156;}.s{fill:rgba(84,149,236,0.11);}.s,.t,.u,.v{stroke:#5495ec;}.v{fill:#5495ec;stroke-width:0.5px;}.w,.x,.y,.z{stroke:#8a8a8a;}.z{fill:#8a8a8a;stroke-width:0.8px;}</style></defs><g transform="translate(-0.34 -0.324)"><g transform="translate(111.956 143.407)"><g transform="translate(82.484 198.397)"><path class="a" d="M82.015,129.119h75.88l11.435,36.737H72.8l9.212-36.737Z" transform="translate(-45.432 -129.119)"/><path class="a" d="M170.665,147.413h23.542a6.217,6.217,0,0,1,6.218,6.218v6.8a2.073,2.073,0,0,1-2.073,2.073H57.145a2.072,2.072,0,0,1-2.072-2.073v-6.8a6.217,6.217,0,0,1,6.217-6.217h91.663" transform="translate(-55.073 -119.172)"/><path class="b" d="M55.476,151.253H199.212" transform="translate(-54.854 -117.084)"/></g><path class="a" d="M2,31.771V13.5A12.9,12.9,0,0,1,14.9.6H301.759a12.9,12.9,0,0,1,12.9,12.9V197.516a12.9,12.9,0,0,1-12.9,12.9H14.9A12.9,12.9,0,0,1,2,197.515V62.5M2,52.35V44.912" transform="translate(-1.448 -0.603)"/><g transform="translate(0 202.281)"><path class="b" d="M1.642,131.635H227.328m86.4,0H240.49" transform="translate(-1.642 -131.635)"/></g><g transform="translate(8.044 5.507)"><rect class="c" width="296.032" height="182.549" rx="6" transform="translate(0 6.905)"/><g transform="translate(0.999)"><path class="d" d="M-.24-4.015H50.971V187.406H-.24Z" transform="translate(0.24 6.485)"/><path class="e" d="M32.708-5.615h278.1V49.6H32.708Z" transform="translate(18.156 5.615)"/><g transform="translate(88.389 81.252)"><rect class="f" width="77.51" height="29.103" rx="6" transform="translate(0 0)"/><rect class="f" width="77.51" height="29.103" rx="6" transform="translate(95.435 0)"/><rect class="f" width="77.51" height="29.103" rx="6" transform="translate(0 46.212)"/><rect class="f" width="77.51" height="29.103" rx="6" transform="translate(95.435 46.212)"/></g><g transform="translate(88.389 81.252)"><rect class="f" width="77.51" height="29.103" rx="6" transform="translate(0 0)"/><rect class="f" width="77.51" height="29.103" rx="6" transform="translate(95.435 0)"/><rect class="f" width="77.51" height="29.103" rx="6" transform="translate(0 46.212)"/><rect class="f" width="77.51" height="29.103" rx="6" transform="translate(95.435 46.212)"/></g><g transform="translate(244.092 39.168)"><circle class="g" cx="16.043" cy="16.043" r="16.043" transform="translate(0 0)"/><g transform="translate(9.957 9.77)"><path class="h" d="M6.676,12.811H19.043M12.86,6.628V18.993" transform="translate(-6.676 -6.628)"/></g></g><g transform="translate(14.062 28.308)"><g transform="translate(0.758 43.718)"><path class="i" d="M.578,28.56h26.8M.578,36.754h26.8M.578,44.4h26.8M.578,52.053h26.8" transform="translate(-0.578 -28.56)"/></g><g transform="translate(0.743 85.606)"><path class="i" d="M.568,55.694H15.907M.568,64.07H15.907M.568,71.721H15.907M.568,79.369H15.907" transform="translate(-0.568 -55.694)"/></g><rect class="j" width="27.777" height="12.748" rx="4.129" transform="translate(0 0)"/></g><g transform="translate(73.546 45.942)"><path class="k" d="M47.4,24.145h11.16m8.941,0h11.16m7.76,0H97.581m7.966,0H116.7" transform="translate(-47.401 -24.145)"/></g></g></g><circle class="l" cx="5.474" cy="5.474" r="5.474" transform="translate(151.356 5.084)"/></g><path class="m" d="M29.486,250.729h443.15" transform="translate(14.978 135.289)"/><g transform="translate(1.94 59.923)"><path class="n" d="M.086,108.431V.072L9.2,6.38,18.068.072,26.937,6.38l9.4-6.308L44.958,6.38,54.222.072,61.348,6.38,70.731.072V108.984l-9.383-6.144-7.126,5.591-9.264-5.591-8.626,5.591-9.4-5.591-8.869,6.144L9.2,102.84Z" transform="translate(-0.086 -0.072)"/><path class="o" d="M.086,108.431V.072L9.2,6.38,18.068.072,26.937,6.38l9.4-6.308L44.958,6.38,54.222.072,61.348,6.38,70.731.072V108.984l-9.383-6.144-7.126,5.591-9.264-5.591-8.626,5.591-9.4-5.591-8.869,6.144L9.2,102.84Z" transform="translate(-0.086 -0.072)"/></g><g transform="translate(13.551 82.19)"><path class="p" d="M9.51,19.746v3.029h-1.9v-8.19h2.665a5.529,5.529,0,0,1,1.516.182,2.864,2.864,0,0,1,1.024.509,1.941,1.941,0,0,1,.576.769,2.547,2.547,0,0,1,.179.968,2.606,2.606,0,0,1-.107.753,2.282,2.282,0,0,1-.318.655,2.4,2.4,0,0,1-.517.537,2.747,2.747,0,0,1-.705.387,1.753,1.753,0,0,1,.358.236,1.4,1.4,0,0,1,.289.343l1.743,2.85h-1.72a.729.729,0,0,1-.687-.36l-1.359-2.377a.573.573,0,0,0-.211-.225.705.705,0,0,0-.34-.066H9.507Zm0-1.311h.763a1.934,1.934,0,0,0,.661-.1,1.193,1.193,0,0,0,.448-.272,1.039,1.039,0,0,0,.253-.408,1.57,1.57,0,0,0,.077-.5,1.052,1.052,0,0,0-.35-.843,1.63,1.63,0,0,0-1.088-.3H9.51Zm11.578-3.85v1.46H17.726v1.913H20.3v1.4H17.726v1.95h3.362v1.462H15.815v-8.19Zm7.313,6.07a.367.367,0,0,1,.264.113l.753.793a3.142,3.142,0,0,1-1.24.976,4.34,4.34,0,0,1-1.763.329,4.2,4.2,0,0,1-1.672-.318,3.619,3.619,0,0,1-1.254-.877,3.862,3.862,0,0,1-.79-1.328,4.9,4.9,0,0,1-.275-1.667,4.39,4.39,0,0,1,.315-1.683A3.875,3.875,0,0,1,24.971,14.8a4.7,4.7,0,0,1,1.738-.309,4.424,4.424,0,0,1,1.63.306,3.618,3.618,0,0,1,.651.343,3.033,3.033,0,0,1,.528.442l-.641.86a.816.816,0,0,1-.145.144.38.38,0,0,1-.236.065.421.421,0,0,1-.191-.046,2.114,2.114,0,0,1-.191-.108l-.222-.14a1.7,1.7,0,0,0-.287-.14,2.633,2.633,0,0,0-1.851.028,2.07,2.07,0,0,0-.735.522,2.424,2.424,0,0,0-.479.824,3.231,3.231,0,0,0-.17,1.085,3.408,3.408,0,0,0,.17,1.118,2.5,2.5,0,0,0,.468.824,2,2,0,0,0,.689.509,2.064,2.064,0,0,0,.843.173,4.01,4.01,0,0,0,.472-.025,1.939,1.939,0,0,0,.4-.088,1.733,1.733,0,0,0,.349-.159,2.387,2.387,0,0,0,.333-.245.664.664,0,0,1,.147-.093A.383.383,0,0,1,28.4,20.656Zm7.885-6.07v1.46H32.925v1.913H35.5v1.4H32.925v1.95h3.362v1.462H31.013v-8.19h5.273Zm3.889,8.19H38.264v-8.19h1.911Zm4.148-2.737v2.737h-1.9v-8.19h2.89a4.756,4.756,0,0,1,1.487.205,2.815,2.815,0,0,1,1.022.565,2.194,2.194,0,0,1,.594.849,2.884,2.884,0,0,1,.19,1.056,3.1,3.1,0,0,1-.2,1.124,2.256,2.256,0,0,1-.6.877,2.834,2.834,0,0,1-1.025.571,4.7,4.7,0,0,1-1.47.205h-.99Zm0-1.434h.988a1.386,1.386,0,0,0,1.068-.355,1.4,1.4,0,0,0,.327-.988,1.479,1.479,0,0,0-.085-.511,1.04,1.04,0,0,0-.256-.4,1.15,1.15,0,0,0-.432-.256,1.914,1.914,0,0,0-.621-.09h-.99v2.6Zm11.949-4.018v1.507h-2.3v6.684h-1.9V16.092h-2.3V14.586h6.51Z" transform="translate(-7.607 -14.496)"/><path class="q" d="M9.51,19.746v3.029h-1.9v-8.19h2.665a5.529,5.529,0,0,1,1.516.182,2.864,2.864,0,0,1,1.024.509,1.941,1.941,0,0,1,.576.769,2.547,2.547,0,0,1,.179.968,2.606,2.606,0,0,1-.107.753,2.282,2.282,0,0,1-.318.655,2.4,2.4,0,0,1-.517.537,2.747,2.747,0,0,1-.705.387,1.753,1.753,0,0,1,.358.236,1.4,1.4,0,0,1,.289.343l1.743,2.85h-1.72a.729.729,0,0,1-.687-.36l-1.359-2.377a.573.573,0,0,0-.211-.225.705.705,0,0,0-.34-.066H9.507Zm0-1.311h.763a1.934,1.934,0,0,0,.661-.1,1.193,1.193,0,0,0,.448-.272,1.039,1.039,0,0,0,.253-.408,1.57,1.57,0,0,0,.077-.5,1.052,1.052,0,0,0-.35-.843,1.63,1.63,0,0,0-1.088-.3H9.51Zm11.578-3.85v1.46H17.726v1.913H20.3v1.4H17.726v1.95h3.362v1.462H15.815v-8.19Zm7.313,6.07a.367.367,0,0,1,.264.113l.753.793a3.142,3.142,0,0,1-1.24.976,4.34,4.34,0,0,1-1.763.329,4.2,4.2,0,0,1-1.672-.318,3.619,3.619,0,0,1-1.254-.877,3.862,3.862,0,0,1-.79-1.328,4.9,4.9,0,0,1-.275-1.667,4.39,4.39,0,0,1,.315-1.683A3.875,3.875,0,0,1,24.971,14.8a4.7,4.7,0,0,1,1.738-.309,4.424,4.424,0,0,1,1.63.306,3.618,3.618,0,0,1,.651.343,3.033,3.033,0,0,1,.528.442l-.641.86a.816.816,0,0,1-.145.144.38.38,0,0,1-.236.065.421.421,0,0,1-.191-.046,2.114,2.114,0,0,1-.191-.108l-.222-.14a1.7,1.7,0,0,0-.287-.14,2.633,2.633,0,0,0-1.851.028,2.07,2.07,0,0,0-.735.522,2.424,2.424,0,0,0-.479.824,3.231,3.231,0,0,0-.17,1.085,3.408,3.408,0,0,0,.17,1.118,2.5,2.5,0,0,0,.468.824,2,2,0,0,0,.689.509,2.064,2.064,0,0,0,.843.173,4.01,4.01,0,0,0,.472-.025,1.939,1.939,0,0,0,.4-.088,1.733,1.733,0,0,0,.349-.159,2.387,2.387,0,0,0,.333-.245.664.664,0,0,1,.147-.093A.383.383,0,0,1,28.4,20.656Zm7.885-6.07v1.46H32.925v1.913H35.5v1.4H32.925v1.95h3.362v1.462H31.013v-8.19h5.273Zm3.889,8.19H38.264v-8.19h1.911Zm4.148-2.737v2.737h-1.9v-8.19h2.89a4.756,4.756,0,0,1,1.487.205,2.815,2.815,0,0,1,1.022.565,2.194,2.194,0,0,1,.594.849,2.884,2.884,0,0,1,.19,1.056,3.1,3.1,0,0,1-.2,1.124,2.256,2.256,0,0,1-.6.877,2.834,2.834,0,0,1-1.025.571,4.7,4.7,0,0,1-1.47.205h-.99Zm0-1.434h.988a1.386,1.386,0,0,0,1.068-.355,1.4,1.4,0,0,0,.327-.988,1.479,1.479,0,0,0-.085-.511,1.04,1.04,0,0,0-.256-.4,1.15,1.15,0,0,0-.432-.256,1.914,1.914,0,0,0-.621-.09h-.99v2.6Zm11.949-4.018v1.507h-2.3v6.684h-1.9V16.092h-2.3V14.586h6.51Z" transform="translate(-7.607 -14.496)"/></g><g transform="translate(12.618 105.442)"><path class="r" d="M8.857,68.98H42.233m-33.376,9.6H30.988M8.857,88.209H42.233M8.857,104.9H26.825" transform="translate(-8.857 -68.98)"/></g><g transform="translate(468.041 234.714)"><g transform="translate(0 0)"><path class="n" d="M.437,22.283,21.54.649H83.245V119.37H.437Z" transform="translate(-0.437 -0.649)"/><path class="s" d="M.437,22.283,21.54.649H83.245V119.37H.437Z" transform="translate(-0.437 -0.649)"/></g><path class="t" d="M304.7,174.231h20.889V153.648" transform="translate(-303.414 -152.214)"/><g transform="translate(1.286 51.091)"><path class="u" d="M304.7,185.814h81.075M304.7,213.106h81.075" transform="translate(-304.7 -185.814)"/></g><path class="v" d="M312.669,202.53H310.15v-10.8h2.519Zm4.281-10.8a2.252,2.252,0,0,1,.275.015.667.667,0,0,1,.37.17,2.1,2.1,0,0,1,.185.2l5.127,6.484q-.054-.577-.059-1.156v-5.712h2.208v10.8h-1.3a1.2,1.2,0,0,1-.488-.09,1.047,1.047,0,0,1-.386-.324l-5.091-6.433q.023.28.037.551c.011.181.016.35.016.509v5.786h-2.208v-10.8Zm18.1,8a.483.483,0,0,1,.349.148l.993,1.045a4.121,4.121,0,0,1-1.633,1.286,5.726,5.726,0,0,1-2.323.432,5.557,5.557,0,0,1-2.2-.417,4.77,4.77,0,0,1-1.652-1.158,5.09,5.09,0,0,1-1.042-1.748,6.457,6.457,0,0,1-.363-2.2,5.8,5.8,0,0,1,.415-2.22,5.122,5.122,0,0,1,2.941-2.887,6.21,6.21,0,0,1,2.291-.406,5.744,5.744,0,0,1,1.144.108,5.59,5.59,0,0,1,1,.295,4.771,4.771,0,0,1,.86.452,4.254,4.254,0,0,1,.7.582l-.846,1.133a1.076,1.076,0,0,1-.191.19.5.5,0,0,1-.312.085.556.556,0,0,1-.252-.06,2.8,2.8,0,0,1-.252-.144l-.293-.185a2.243,2.243,0,0,0-.378-.185,3.121,3.121,0,0,0-.511-.145,3.488,3.488,0,0,0-.685-.059,3.134,3.134,0,0,0-1.244.241,2.73,2.73,0,0,0-.968.689,3.2,3.2,0,0,0-.63,1.085,4.257,4.257,0,0,0-.225,1.431,4.469,4.469,0,0,0,.225,1.474,3.223,3.223,0,0,0,.616,1.085,2.636,2.636,0,0,0,.908.672,2.718,2.718,0,0,0,1.112.228,5.48,5.48,0,0,0,.622-.032,2.416,2.416,0,0,0,.982-.326,2.944,2.944,0,0,0,.44-.324.88.88,0,0,1,.193-.12.5.5,0,0,1,.216-.049Zm14.1-2.609a5.788,5.788,0,0,1-.4,2.18,5.154,5.154,0,0,1-2.9,2.919,6.44,6.44,0,0,1-4.591,0,5.151,5.151,0,0,1-2.916-2.919,6.09,6.09,0,0,1,0-4.356,5.174,5.174,0,0,1,1.142-1.749,5.281,5.281,0,0,1,1.774-1.164,6.037,6.037,0,0,1,2.3-.421,5.964,5.964,0,0,1,2.294.426,5.279,5.279,0,0,1,1.766,1.167,5.2,5.2,0,0,1,1.138,1.748,5.771,5.771,0,0,1,.4,2.172Zm-2.564,0a4.7,4.7,0,0,0-.207-1.44,3.052,3.052,0,0,0-.6-1.085,2.572,2.572,0,0,0-.952-.682,3.278,3.278,0,0,0-1.281-.236,3.339,3.339,0,0,0-1.294.236,2.6,2.6,0,0,0-.956.682,3.053,3.053,0,0,0-.6,1.085,5.114,5.114,0,0,0,0,2.89,3.057,3.057,0,0,0,.6,1.085,2.539,2.539,0,0,0,.957.679,3.384,3.384,0,0,0,1.292.232,3.344,3.344,0,0,0,1.281-.232,2.522,2.522,0,0,0,.953-.679,3.059,3.059,0,0,0,.6-1.085,4.68,4.68,0,0,0,.207-1.448Zm10.246.468c.1.188.195.383.286.587s.179.409.262.622c.085-.218.174-.429.267-.633s.189-.4.29-.6l2.771-5.454a.91.91,0,0,1,.151-.219.5.5,0,0,1,.174-.114.73.73,0,0,1,.219-.045q.142-.008.284-.008h1.913v10.8h-2.208v-6.209q0-.454.043-.979l-2.861,5.55a.942.942,0,0,1-.358.394.994.994,0,0,1-.516.133h-.34a.994.994,0,0,1-.516-.133.942.942,0,0,1-.36-.394l-2.876-5.557a9.25,9.25,0,0,1,.06.986v6.209h-2.208v-10.8h1.911c.108,0,.2,0,.286.008a.716.716,0,0,1,.218.045.476.476,0,0,1,.174.114.9.9,0,0,1,.151.219Zm16.308-5.862v1.927h-4.431v2.519H372.1v1.853h-3.393V200.6h4.431v1.927h-6.95v-10.8Z" transform="translate(-300.451 -131.569)"/></g><g transform="translate(428.626 1.924)"><path class="w" d="M278.43,117.094H393.463V50.353l-57-48.429L278.43,50.352Z" transform="translate(-278.283 -1.924)"/><g transform="translate(18.59 12.401)"><path class="x" d="M290.377,82.756V9.957l7,4.424,6.353-4.424,6.331,4.424,6.823-4.424,6.3,4.424,7.081-4.424,6.474,4.424,6.076-4.424,6.544,4.424,7.28-4.424,6.57,4.424,5.445-4.424V81.649Z" transform="translate(-290.377 -9.957)"/><path class="y" d="M304.217,37.987H340m-35.784,7.9H340m-35.784,9.088h9.758" transform="translate(-282.851 5.284)"/></g><path class="y" d="M278.553,33.235l57.668,33.123L393.3,33.235M278.335,100.022,320.546,57.56m73.061,42.348-41.7-42.367" transform="translate(-278.335 15.101)"/><path class="z" d="M304.691,25.854v1.524h-3.507v2h2.686V30.84h-2.686v2.036h3.507V34.4h-5.5V25.854h5.5Zm3.994,4.153-2.646-4.153h1.982a.617.617,0,0,1,.286.049.429.429,0,0,1,.161.167l1.7,2.881a1.241,1.241,0,0,1,.068-.147c.025-.046.054-.1.085-.147l1.49-2.558a.447.447,0,0,1,.4-.247h1.9l-2.68,4.065,2.74,4.483h-1.984a.5.5,0,0,1-.313-.094.715.715,0,0,1-.19-.224l-1.714-2.992a1.188,1.188,0,0,1-.105.224l-1.6,2.768a.748.748,0,0,1-.188.221.446.446,0,0,1-.293.1h-1.853l2.751-4.4Zm8.991,1.536V34.4h-1.982V25.854h3.015a4.948,4.948,0,0,1,1.551.215,2.983,2.983,0,0,1,1.068.59,2.3,2.3,0,0,1,.617.886,2.969,2.969,0,0,1,.2,1.1,3.244,3.244,0,0,1-.205,1.173,2.4,2.4,0,0,1-.628.915,2.958,2.958,0,0,1-1.07.594,4.889,4.889,0,0,1-1.534.215h-1.033Zm0-1.5h1.033a1.258,1.258,0,0,0,1.454-1.4,1.544,1.544,0,0,0-.088-.534,1.087,1.087,0,0,0-.267-.414,1.2,1.2,0,0,0-.451-.267,2,2,0,0,0-.648-.093h-1.033v2.709Zm11.766-4.194v1.525h-3.509v2h2.686V30.84h-2.686v2.036h3.509V34.4h-5.5V25.854h5.5Zm2.932,0a1.669,1.669,0,0,1,.216.012.528.528,0,0,1,.293.134,1.571,1.571,0,0,1,.147.159l4.06,5.133q-.043-.457-.046-.915V25.852h1.748V34.4h-1.033a.951.951,0,0,1-.386-.071.829.829,0,0,1-.306-.258l-4.029-5.091.028.437c.008.142.012.276.012.4V34.4H331.33V25.852h1.044Zm13.349,1.737a.744.744,0,0,1-.185.211.414.414,0,0,1-.247.069.61.61,0,0,1-.292-.085l-.352-.19a2.921,2.921,0,0,0-.448-.191,1.8,1.8,0,0,0-.576-.085,1.237,1.237,0,0,0-.831.238.809.809,0,0,0-.272.642.593.593,0,0,0,.164.429,1.445,1.445,0,0,0,.432.293,4.723,4.723,0,0,0,.61.225c.228.068.463.145.7.228a6.034,6.034,0,0,1,.7.3,2.316,2.316,0,0,1,.61.434,2.069,2.069,0,0,1,.432.642,2.311,2.311,0,0,1,.164.912,2.991,2.991,0,0,1-.205,1.108,2.6,2.6,0,0,1-.6.9,2.763,2.763,0,0,1-.962.605,3.6,3.6,0,0,1-1.3.219,4.093,4.093,0,0,1-.812-.082,4.824,4.824,0,0,1-1.528-.587,3.091,3.091,0,0,1-.593-.457l.587-.926a.516.516,0,0,1,.434-.235.655.655,0,0,1,.355.111l.4.247a3.641,3.641,0,0,0,.52.245,1.946,1.946,0,0,0,.692.111,1.312,1.312,0,0,0,.838-.238.9.9,0,0,0,.3-.753.712.712,0,0,0-.164-.488,1.268,1.268,0,0,0-.432-.31,3.971,3.971,0,0,0-.607-.216c-.227-.063-.459-.133-.7-.208a5.107,5.107,0,0,1-.7-.283A2.059,2.059,0,0,1,340.83,29.3a2.7,2.7,0,0,1-.164-1,2.424,2.424,0,0,1,.763-1.754,2.767,2.767,0,0,1,.922-.571,3.377,3.377,0,0,1,1.249-.216,4.79,4.79,0,0,1,.766.062,4.024,4.024,0,0,1,1.331.469,2.866,2.866,0,0,1,.52.378l-.494.922Zm7.859-1.737v1.525h-3.507v2h2.686V30.84h-2.686v2.036h3.507V34.4h-5.5V25.854h5.5Z" transform="translate(-266.996 11.036)"/></g></g></svg>