<svg xmlns="http://www.w3.org/2000/svg" width="20" height="17.778" viewBox="0 0 20 17.778"><defs><style>.a{fill:#f95738;}</style></defs><path class="a" d="M19.739,6.161l-5,4.722a.834.834,0,0,1-1.406-.606v-2.5C8.313,7.812,6.2,9,7.612,13.728a.556.556,0,0,1-.868.6A6.684,6.684,0,0,1,4.167,9.352c0-5,4.083-5.99,9.167-6.018V.834A.834.834,0,0,1,14.739.228l5,4.722A.834.834,0,0,1,19.739,6.161Zm-6.406,7v2.391H2.222V4.444H3.99a.416.416,0,0,0,.3-.128A6.769,6.769,0,0,1,6.062,3.008a.416.416,0,0,0-.193-.786h-4.2A1.667,1.667,0,0,0,0,3.889V16.111a1.667,1.667,0,0,0,1.667,1.667H13.889a1.667,1.667,0,0,0,1.667-1.667V13.028A.417.417,0,0,0,15,12.635a2.494,2.494,0,0,1-1.187.117A.417.417,0,0,0,13.333,13.164Z"/></svg>